<mxfile host="app.diagrams.net" agent="Mozilla/5.0 (Linux; Android 10; K) AppleWebKit/537.36 (KHTML, like Gecko) Chrome/134.0.0.0 Mobile Safari/537.36" version="26.2.3">
  <diagram name="Page-1" id="yqJtDrVs0pP2PQ22Da8c">
    <mxGraphModel>
      <root>
        <mxCell id="0" />
        <mxCell id="1" parent="0" />
      </root>
    </mxGraphModel>
  </diagram>
</mxfile>
